<?xml version="1.0" encoding="UTF-8"?>
<svg id="Capa_1" data-name="Capa 1" xmlns="http://www.w3.org/2000/svg" viewBox="0 0 384.61 497.24">
  <defs>
    <style>
      .cls-1 {
        fill: #fff;
      }
    </style>
  </defs>
  <path class="cls-1" d="M274.85,0l107.32,105.83,2.2,3.62.24,356.21c-1.9,16.93-15.73,30-32.58,31.51l-317.57.06c-17.54-.61-32.7-13.98-34.46-31.57L.05,30.6C2.21,14.72,14.23,4.04,29.17,0h245.68ZM264.17,16.51H29.65c-.36,0-5.53,2.92-6.25,3.46-5.22,3.91-7.3,10.09-7.87,16.41v424.43c.8,9.23,4.67,16.13,13.6,19.41l323.91.48c5.92-1.11,11.29-4.97,13.81-10.47.37-.82,2.19-6.2,2.19-6.55V119.44h-67.49c-15.54,0-37.39-22.9-37.39-38.36V16.51ZM356.42,103.91l-75.74-75.74v53.89c0,8.56,16.38,21.85,24.76,21.85h50.98Z"/>
  <path class="cls-1" d="M211.73,402.03h16.51v-28.65c0-6.55,7.45-11.18,13.16-7.32.75.5,3.35,3.9,3.35,4.41v31.56h25.25v-59.72c0-3.09,4.87-7.33,8.25-7.34,2.76,0,8.25,4.04,8.25,6.37v60.69h25.25v-88.85c0-.28,1.86-4.62,2.23-5.07,3.8-4.6,14.28-1.87,14.28,4.1v89.82h25.73c.31,0,3.9,3.68,4.17,4.57,1.59,5.29-.73,9.82-6.16,10.92l-147.59.1c-3.26.15-5.99-1.32-7.48-4.18l-.67-125.45c1.56-9.99,15.48-6.35,15.48-1.03v115.07Z"/>
  <path class="cls-1" d="M100.06,171.88h52.92c7.32,0,4.72,16.3,3.92,20.43-9.77,50.26-71.74,70.19-109.79,35.92-44.09-39.71-15.1-114.58,43.73-114.62,3.02,0,9.22,3.38,9.22,6.32v51.95ZM83.55,131.1c-34.15,5.12-52.76,43.04-35.12,73.48,23.25,40.12,86.33,28.91,92.42-17.16h-51.95c-1.51,0-5.34-5.21-5.34-6.31v-50.01Z"/>
  <path class="cls-1" d="M115.9,86.73c4.13-4.51,17.57-1.48,23.2-.03,22.49,5.82,41.9,25.3,47.09,48.08,2,8.77,5.32,22.42-6.95,23.55-13.17,1.21-44.49,1.48-57.36-.02-5.43-.64-7.81-4.15-8.28-9.2-1.21-13.17-1.43-43.46.02-56.39.2-1.79,1.09-4.68,2.28-5.98ZM170.94,141.78c-3.06-20.95-20.26-37-40.79-40.79v40.79h40.79Z"/>
  <path class="cls-1" d="M212.42,175.97l119.24-.2c11.77,1.04,12.36,15.12,0,16.51-36.12,4.06-79.63-3.03-116.53,0-10.36-.59-12.4-12.58-2.71-16.3Z"/>
  <path class="cls-1" d="M167.76,335.29c5.43,5.45.4,14.53-7.01,14.29-36.95-2.74-79.24,3.67-115.56,0-12.84-1.29-11.9-15.37-1.96-16.54,37.85,2.63,80.26-3.42,117.57-.03,2.05.19,5.53.83,6.96,2.27Z"/>
  <path class="cls-1" d="M167.76,414.38c-1.43,1.43-4.91,2.08-6.96,2.27-37.31,3.39-79.72-2.66-117.57-.03-11.1-1.3-9.26-16.93,1.96-16.54,36.66,2.71,78.53-3.61,114.58.02,7.92.8,14.45,7.81,8,14.28Z"/>
  <path class="cls-1" d="M41.51,367.27l121.2-.23c9.82.97,9.83,14.6,0,15.58l-122.84-.53c-6.02-3.83-5.55-12.7,1.64-14.83Z"/>
  <path class="cls-1" d="M211.44,209.95l124.33.54c7.1,2.84,5.84,14.48-2.16,14.82h-120.45c-8.77-1.03-9.32-11.57-1.72-15.35Z"/>
  <path class="cls-1" d="M211.45,142.96l122.17-.23c9.81,1.14,8.7,14.83-.97,15.58h-118.52c-9.12-1.07-11.16-11.75-2.68-15.35Z"/>
</svg>